<svg width="37" height="10" viewBox="0 0 37 10" fill="none" xmlns="http://www.w3.org/2000/svg">
<path d="M0 9.884V0.0839998H6.174V1.512H1.61V4.354H5.488V5.782H1.61V9.884H0Z" fill="#CCD0D3"/>
<path d="M12.5755 9.968C11.7448 9.968 11.0215 9.76733 10.4055 9.366C9.7895 8.95533 9.30883 8.37667 8.9635 7.63C8.6275 6.88333 8.4595 6.00133 8.4595 4.984C8.4595 3.96667 8.6275 3.08467 8.9635 2.338C9.30883 1.59133 9.7895 1.01733 10.4055 0.616C11.0215 0.205333 11.7448 0 12.5755 0C13.3968 0 14.1155 0.205333 14.7315 0.616C15.3568 1.02667 15.8422 1.60533 16.1875 2.352C16.5328 3.08933 16.7055 3.96667 16.7055 4.984C16.7055 5.992 16.5328 6.86933 16.1875 7.616C15.8422 8.36267 15.3568 8.94133 14.7315 9.352C14.1155 9.76267 13.3968 9.968 12.5755 9.968ZM12.5755 8.554C13.1075 8.554 13.5555 8.414 13.9195 8.134C14.2928 7.854 14.5775 7.45267 14.7735 6.93C14.9695 6.398 15.0675 5.74933 15.0675 4.984C15.0675 4.21867 14.9695 3.57 14.7735 3.038C14.5775 2.506 14.2928 2.10467 13.9195 1.834C13.5555 1.554 13.1075 1.414 12.5755 1.414C12.0622 1.414 11.6188 1.554 11.2455 1.834C10.8722 2.10467 10.5875 2.506 10.3915 3.038C10.1955 3.56067 10.0975 4.20933 10.0975 4.984C10.0975 5.75867 10.1955 6.412 10.3915 6.944C10.5875 7.46667 10.8722 7.868 11.2455 8.148C11.6188 8.41867 12.0622 8.554 12.5755 8.554Z" fill="#CCD0D3"/>
<path d="M19.8488 9.884V0.0839998H21.4588V8.456H25.6308V9.884H19.8488Z" fill="#CCD0D3"/>
<path d="M28.5086 9.884V0.0839998H31.6866C32.6479 0.0839998 33.4646 0.289333 34.1366 0.7C34.8179 1.10133 35.3359 1.67067 35.6906 2.408C36.0453 3.136 36.2226 3.99 36.2226 4.97C36.2226 5.95933 36.0453 6.82267 35.6906 7.56C35.3359 8.288 34.8179 8.85733 34.1366 9.268C33.4646 9.67867 32.6479 9.884 31.6866 9.884H28.5086ZM30.1186 8.484H31.6866C32.6759 8.484 33.4039 8.16667 33.8706 7.532C34.3466 6.89733 34.5846 6.04333 34.5846 4.97C34.5846 3.906 34.3466 3.06133 33.8706 2.436C33.4039 1.80133 32.6759 1.484 31.6866 1.484H30.1186V8.484Z" fill="#CCD0D3"/>
</svg>
