<svg width="40" height="43" viewBox="0 0 40 43" fill="none" xmlns="http://www.w3.org/2000/svg">
<path d="M19.6984 0.00887772C20.243 -0.0458398 21.3533 0.159351 21.8514 0.433883C24.7686 2.04179 27.689 3.69952 30.6004 5.31607L36.4568 8.57387C37.1619 8.95739 37.8648 9.34451 38.5658 9.73523C38.7841 9.85838 39.3209 10.1259 39.4658 10.2709C40.2425 11.0482 39.9315 11.8631 39.0923 12.3278C38.1703 12.8381 37.3455 13.3055 36.4775 13.7882L30.1667 17.2766L25.1487 20.0512C24.0001 20.6933 22.7968 21.3579 21.6284 21.9666C21.2738 22.1513 20.7012 22.2456 20.3023 22.2833C19.6941 22.3175 18.9264 22.2237 18.382 21.9632C17.3707 21.4794 16.3543 20.87 15.3732 20.3266L9.2445 16.9382C7.49629 15.9757 5.72652 14.971 3.97781 14.0279C3.229 13.6309 2.48555 13.224 1.74762 12.8071C1.14254 12.4691 0.150693 12.0701 0.0781112 11.3078C0.0210538 10.7089 0.371588 10.3378 0.850815 10.0539C1.87366 9.44809 2.92913 8.90551 3.96985 8.33439L9.63734 5.1854L15.2039 2.0836C16.5205 1.34703 18.2103 0.157551 19.6984 0.00887772Z" fill="#1E6EFD"/>
<path d="M35.8503 17.0994L36.7971 17.6348C38.2699 18.4863 40.3884 19.0604 39.9186 21.1841C39.6365 22.4596 38.4404 22.8516 37.4122 23.4267C36.4214 23.9916 35.4256 24.5472 34.4243 25.0934L27.764 28.8758L23.5497 31.2807C22.1127 32.1007 20.5828 33.2579 18.9065 32.5766C17.603 32.0468 16.1316 31.1022 14.9011 30.3992L8.75469 26.8923C7.18705 26.0108 5.59412 25.0825 4.02676 24.2231L1.95258 23.0744C1.66346 22.9163 1.22977 22.7165 0.973421 22.5512C0.695874 22.3712 0.46355 22.1297 0.294493 21.8453C-0.185995 21.0269 -0.0663007 19.6676 0.686245 19.1002C1.65064 18.3733 2.99711 17.7263 4.05632 17.1308C4.17012 17.1289 5.62085 17.9411 5.86078 18.0589C5.13236 18.484 4.40685 18.8801 3.65921 19.3039C3.06344 19.6416 2.1737 19.9625 1.71017 20.4798C1.61712 20.5837 1.65334 20.7103 1.67674 20.8356C1.70959 21.0117 1.91316 21.1 2.04784 21.1912C3.12239 21.8128 4.21611 22.4126 5.29849 23.0201L11.8164 26.695L16.5224 29.3708C17.4322 29.8914 18.3939 30.4308 19.3197 30.9266C19.5425 31.0328 20.0048 31.1594 20.2481 31.0733C21.2956 30.7027 22.3284 30.0167 23.2955 29.468L28.6132 26.4401C31.673 24.6938 34.76 22.9715 37.8379 21.2592C38.1934 21.1047 38.6024 20.5405 38.0984 20.2822C36.8034 19.618 35.3918 18.6653 34.0851 18.064C34.5746 17.8315 35.3774 17.3781 35.8503 17.0994Z" fill="white"/>
<path d="M3.96834 26.7107C4.26578 26.7149 5.36845 27.4534 5.78153 27.6385L3.549 28.8818C3.07707 29.1387 1.771 29.7048 1.67187 30.224C1.72146 30.428 1.83269 30.5734 2.01403 30.678C2.80942 31.1367 3.62334 31.5895 4.4234 32.0386L9.9132 35.1471L16.4674 38.8919C17.2851 39.354 18.0895 39.8809 18.9314 40.2953C19.3301 40.492 19.7789 40.6936 20.2345 40.622C21.0029 40.5019 24.2233 38.5026 25.1486 37.9784L34.3873 32.7066L36.7069 31.3776C37.1898 31.1057 37.8715 30.8348 38.2234 30.4206C38.4331 30.1742 38.2396 29.8944 38.0119 29.7608C37.5228 29.4741 37.008 29.1955 36.5135 28.9242L34.1898 27.6366C34.8188 27.3208 35.3719 26.949 36.0378 26.6935C36.3078 26.8746 36.7146 27.0975 37.003 27.2653C37.8049 27.6999 39.2061 28.3299 39.6917 29.1042C40.3284 30.121 39.936 31.47 38.9096 32.0904C37.7347 32.8007 36.5238 33.4499 35.3237 34.1281C33.1889 35.3631 31.0472 36.5866 28.8989 37.7984C27.0433 38.8707 25.1778 39.9259 23.3026 40.964C22.676 41.3119 22.1269 41.7213 21.4654 42.0057C19.6247 42.7977 18.2999 41.8721 16.7608 41.0068L14.121 39.5083L7.06199 35.486L3.1267 33.2584C1.68294 32.4505 -0.447622 31.7282 0.0830386 29.661C0.178704 29.2863 0.3762 28.9454 0.653612 28.6759C1.15655 28.1821 3.17548 27.1856 3.96834 26.7107Z" fill="#A1A2A4"/>
</svg>
